<svg xmlns="http://www.w3.org/2000/svg" viewBox="0 0 268 256"><g id="Layer_2" data-name="Layer 2"><g id="Layer_1-2" data-name="Layer 1"><path d="M48.2,1.6c-3.5,2.4-3,7.5,1.1,10.6C51,13.6,58.6,22.5,66,31.9S81.8,52.2,84.7,55.8l5.2,6.7L84.8,67l-5.2,4.5-34,.5c-32.1.5-34.3.6-37.6,2.6A19.55,19.55,0,0,0,2.3,80L0,83.3v81.1c0,79.2.1,81.2,2,84.4A18.4,18.4,0,0,0,7.2,254c3.2,2,5.3,2,126.8,2s123.6,0,126.8-2a18.4,18.4,0,0,0,5.2-5.2c1.9-3.2,2-5.2,2-84.4V83.3L265.7,80a19.55,19.55,0,0,0-5.7-5.4c-3.4-2-5.3-2.1-63.1-2.6l-59.5-.5L132.3,67l-5.2-4.5,17.3-24.2C153.9,25,163.1,13,164.8,11.5c1.9-1.5,3.2-3.6,3.2-4.9,0-2.7-3.9-6.6-6.6-6.6-3,0-6.4,2.9-6.4,5.4s-.8,3.9-21.4,32.7L119,58.5,109,59l-10,.5L84.6,41c-7.9-10.2-16.9-21.7-20-25.5S59,7.6,59,6.4C59,3.8,55,0,52.4,0A8.47,8.47,0,0,0,48.2,1.6ZM256.9,83.4l2.1,1.9v79.3c0,70.7-.2,79.4-1.6,80.8S243.4,247,134,247s-122-.2-123.4-1.6S9,235.3,9,164.6c0-74.3.1-79.4,1.8-80.8A10.94,10.94,0,0,1,14,81.7c.8-.3,55.3-.5,121.1-.4C251.3,81.5,254.9,81.6,256.9,83.4Z"/><path d="M17.2,87.2c-1.7,1.7-1.7,152.9,0,154.6s196.9,1.7,198.6,0,1.7-152.9,0-154.6S18.9,85.5,17.2,87.2Zm193,8c.2,1.3.2,33.5,0,71.5L210,236H23V93H209.9Z"/><path d="M231.5,100.4c-3.8,1.7-6,4.2-8,9.1-2.4,5.7-1.3,11.6,3.2,16.6a16.07,16.07,0,0,0,28.1-12.3A16.46,16.46,0,0,0,231.5,100.4Zm13.2,7.2a9.49,9.49,0,0,1,3.1,4.7c2.6,9.8-8.3,16.7-15.7,9.8-4-3.7-4.2-8.6-.6-13C235.1,104.9,239.6,104.4,244.7,107.6Z"/><path d="M223.9,143.6a2.33,2.33,0,0,0-.2,3.2c.8,1.4,3.2,1.7,14.9,2,12,.2,14,0,15.1-1.4a2.86,2.86,0,0,0,.2-3.5c-.9-1.7-2.3-1.9-14.8-1.9C227.7,142,225,142.3,223.9,143.6Z"/><path d="M224.3,155.7a2.33,2.33,0,0,0-1.3,2.2c0,3.6,2,4.1,15.6,4.1,10.7,0,13.6-.3,14.8-1.6a2.55,2.55,0,0,0,.6-3.5c-1-1.7-2.2-1.9-14.8-1.8C231.7,155.1,224.9,155.4,224.3,155.7Z"/><path d="M223.3,169.6a4.29,4.29,0,0,0,.4,3.3c1.5,2.4,27.4,2.9,29.7.6,1.2-1.3,1.3-2.1.6-3.6-1-1.7-2.3-1.9-15.6-1.9C225.9,168,223.9,168.2,223.3,169.6Z"/><path d="M233.2,190.6c-2.8,1.9-2.9,6.7-.2,9.4,2.9,2.9,8.4,2.7,11.5-.5,3-2.9,3.1-4.5.4-7.9C242.5,188.5,236.8,188,233.2,190.6Z"/><path d="M233,214c-2.4,2.4-2.6,5.7-.4,8.8,2.3,3.4,9.5,3.1,12.3-.4a9.35,9.35,0,0,0,2.1-3.9,9.35,9.35,0,0,0-2.1-3.9C242.3,211.3,236.1,210.9,233,214Z"/></g></g></svg>